M48
INCH,TZ
T1C0.040
%
G90
G05
T1
X66500Y-41500
X66500Y-42500
X66500Y-43500
X66500Y-44500
X67500Y-41500
X67500Y-42500
X67500Y-43500
X67500Y-44500
X68500Y-41500
X68500Y-42500
X68500Y-43500
X68500Y-44500
X69500Y-41500
X69500Y-42500
X69500Y-43500
X69500Y-44500
X70500Y-41500
X70500Y-42500
X70500Y-43500
X70500Y-44500
T0
M30
