G04 (created by PCBNEW-RS274X (2010-12-23 BZR 2684)-stable) date 1/20/2012 10:05:01 PM*
G01*
G70*
G90*
%MOIN*%
G04 Gerber Fmt 3.4, Leading zero omitted, Abs format*
%FSLAX34Y34*%
G04 APERTURE LIST*
%ADD10C,0.006000*%
%ADD11R,0.060000X0.060000*%
%ADD12C,0.060000*%
%ADD13C,0.008000*%
G04 APERTURE END LIST*
G54D10*
G54D11*
X66500Y-42000D03*
G54D12*
X66500Y-41000D03*
X67500Y-42000D03*
X67500Y-41000D03*
X68500Y-42000D03*
X68500Y-41000D03*
X69500Y-42000D03*
X69500Y-41000D03*
X70500Y-42000D03*
X70500Y-41000D03*
G54D11*
X64000Y-43000D03*
G54D12*
X65000Y-43000D03*
X66000Y-43000D03*
X67000Y-43000D03*
X68000Y-43000D03*
X69000Y-43000D03*
X70000Y-43000D03*
X71000Y-43000D03*
X72000Y-43000D03*
X73000Y-43000D03*
G54D13*
X64000Y-43000D02*
X64000Y-42800D01*
X64800Y-42000D02*
X66500Y-42000D01*
X64000Y-42800D02*
X64800Y-42000D01*
X66000Y-43000D02*
X66200Y-43000D01*
X67000Y-42500D02*
X67500Y-42000D01*
X66700Y-42500D02*
X67000Y-42500D01*
X66200Y-43000D02*
X66700Y-42500D01*
X68000Y-43000D02*
X68000Y-42500D01*
X68000Y-42500D02*
X68500Y-42000D01*
X72000Y-43000D02*
X72000Y-42800D01*
X71200Y-42000D02*
X70500Y-42000D01*
X72000Y-42800D02*
X71200Y-42000D01*
X70000Y-43000D02*
X70000Y-42500D01*
X70000Y-42500D02*
X69500Y-42000D01*
M02*
