G04 (created by PCBNEW-RS274X (2010-12-23 BZR 2684)-stable) date 1/20/2012 10:05:01 PM*
G01*
G70*
G90*
%MOIN*%
G04 Gerber Fmt 3.4, Leading zero omitted, Abs format*
%FSLAX34Y34*%
G04 APERTURE LIST*
%ADD10C,0.006000*%
%ADD11C,0.015000*%
%ADD12C,0.012000*%
%ADD13C,0.007500*%
%ADD14C,0.005000*%
%ADD15R,0.080000X0.080000*%
%ADD16C,0.080000*%
G04 APERTURE END LIST*
G54D10*
G54D11*
X64085Y-42300D02*
X64084Y-42306D01*
X64082Y-42313D01*
X64079Y-42319D01*
X64074Y-42324D01*
X64069Y-42329D01*
X64063Y-42332D01*
X64057Y-42334D01*
X64050Y-42334D01*
X64044Y-42334D01*
X64037Y-42332D01*
X64031Y-42329D01*
X64026Y-42325D01*
X64022Y-42319D01*
X64018Y-42313D01*
X64016Y-42307D01*
X64016Y-42300D01*
X64016Y-42294D01*
X64018Y-42288D01*
X64021Y-42282D01*
X64025Y-42276D01*
X64031Y-42272D01*
X64036Y-42268D01*
X64043Y-42266D01*
X64050Y-42266D01*
X64056Y-42266D01*
X64062Y-42268D01*
X64068Y-42271D01*
X64074Y-42275D01*
X64078Y-42280D01*
X64081Y-42286D01*
X64084Y-42293D01*
X64084Y-42300D01*
X64085Y-42300D01*
X65835Y-42300D02*
X65834Y-42306D01*
X65832Y-42313D01*
X65829Y-42319D01*
X65824Y-42324D01*
X65819Y-42329D01*
X65813Y-42332D01*
X65807Y-42334D01*
X65800Y-42334D01*
X65794Y-42334D01*
X65787Y-42332D01*
X65781Y-42329D01*
X65776Y-42325D01*
X65772Y-42319D01*
X65768Y-42313D01*
X65766Y-42307D01*
X65766Y-42300D01*
X65766Y-42294D01*
X65768Y-42288D01*
X65771Y-42282D01*
X65775Y-42276D01*
X65781Y-42272D01*
X65786Y-42268D01*
X65793Y-42266D01*
X65800Y-42266D01*
X65806Y-42266D01*
X65812Y-42268D01*
X65818Y-42271D01*
X65824Y-42275D01*
X65828Y-42280D01*
X65831Y-42286D01*
X65834Y-42293D01*
X65834Y-42300D01*
X65835Y-42300D01*
G54D12*
X66000Y-40500D02*
X71000Y-40500D01*
X71000Y-40500D02*
X71000Y-42500D01*
X71000Y-42500D02*
X66000Y-42500D01*
X66000Y-42500D02*
X66000Y-40500D01*
X63500Y-42500D02*
X73500Y-42500D01*
X73500Y-42500D02*
X73500Y-43500D01*
X73500Y-43500D02*
X63500Y-43500D01*
X63500Y-42500D02*
X63500Y-43500D01*
G54D13*
X71200Y-41212D02*
X71175Y-41200D01*
X71175Y-41200D02*
X71162Y-41175D01*
X71150Y-40862D02*
X71200Y-40887D01*
X71237Y-41725D02*
X71262Y-41750D01*
X71162Y-41387D02*
X71150Y-41413D01*
X71150Y-41413D02*
X71137Y-41450D01*
X71137Y-41450D02*
X71137Y-41500D01*
X71137Y-41500D02*
X71150Y-41538D01*
X71150Y-41538D02*
X71162Y-41588D01*
X71450Y-41375D02*
X71413Y-41350D01*
X71413Y-41350D02*
X71375Y-41337D01*
X71375Y-41337D02*
X71338Y-41325D01*
X71338Y-41325D02*
X71300Y-41325D01*
X71300Y-41325D02*
X71262Y-41325D01*
X71262Y-41325D02*
X71225Y-41337D01*
X71225Y-41337D02*
X71187Y-41362D01*
X71187Y-41362D02*
X71162Y-41387D01*
X71500Y-41262D02*
X71563Y-41275D01*
X71563Y-41275D02*
X71600Y-41287D01*
X71600Y-41287D02*
X71638Y-41300D01*
X71550Y-41725D02*
X71488Y-41713D01*
X71488Y-41713D02*
X71388Y-41675D01*
X71388Y-41675D02*
X71287Y-41638D01*
X71287Y-41638D02*
X71200Y-41613D01*
X71200Y-41613D02*
X71150Y-41613D01*
X71150Y-41613D02*
X71125Y-41638D01*
X71125Y-41638D02*
X71137Y-41688D01*
X71137Y-41688D02*
X71175Y-41800D01*
X71175Y-41800D02*
X71200Y-41925D01*
X71200Y-41925D02*
X71225Y-42038D01*
X71225Y-42038D02*
X71237Y-42138D01*
X71237Y-42138D02*
X71250Y-42238D01*
X71250Y-42238D02*
X71250Y-42313D01*
X71613Y-41538D02*
X71525Y-41450D01*
X71525Y-41450D02*
X71450Y-41375D01*
X71162Y-41588D02*
X71200Y-41675D01*
X71200Y-41675D02*
X71237Y-41725D01*
X71150Y-40862D02*
X71550Y-40887D01*
X71550Y-40887D02*
X71175Y-41162D01*
X71200Y-41212D02*
X71500Y-41262D01*
G54D14*
X65220Y-42050D02*
X65233Y-42043D01*
X65245Y-42035D01*
X65256Y-42027D01*
X65267Y-42017D01*
X65277Y-42006D01*
X65285Y-41995D01*
X65293Y-41983D01*
X65300Y-41970D01*
X65305Y-41956D01*
X65310Y-41942D01*
X65313Y-41928D01*
X65315Y-41914D01*
X65316Y-41900D01*
X65315Y-41886D01*
X65313Y-41872D01*
X65310Y-41858D01*
X65305Y-41844D01*
X65300Y-41830D01*
X65293Y-41817D01*
X65285Y-41805D01*
X65277Y-41794D01*
X65267Y-41783D01*
X65256Y-41773D01*
X65245Y-41765D01*
X65233Y-41757D01*
X65220Y-41750D01*
X65206Y-41745D01*
X65192Y-41740D01*
X65178Y-41737D01*
X65164Y-41735D01*
X65150Y-41734D01*
X65136Y-41735D01*
X65122Y-41737D01*
X65108Y-41740D01*
X65094Y-41745D01*
X65080Y-41750D01*
X65067Y-41757D01*
X65055Y-41765D01*
X65044Y-41773D01*
X65033Y-41783D01*
X65023Y-41794D01*
X65015Y-41805D01*
X65007Y-41818D01*
X65000Y-41830D01*
X64995Y-41844D01*
X64990Y-41858D01*
X64987Y-41872D01*
X64985Y-41886D01*
X64984Y-41900D01*
X64985Y-41914D01*
X64987Y-41928D01*
X64990Y-41942D01*
X64995Y-41956D01*
X65000Y-41970D01*
X65007Y-41982D01*
X65015Y-41995D01*
X65023Y-42006D01*
X65033Y-42017D01*
X65044Y-42027D01*
X65055Y-42035D01*
X65068Y-42043D01*
X65080Y-42050D01*
X65086Y-42052D01*
X65085Y-42053D02*
X64980Y-42313D01*
X64980Y-42313D02*
X64915Y-42280D01*
X64915Y-42280D02*
X64793Y-42379D01*
X64793Y-42379D02*
X64671Y-42257D01*
X64671Y-42257D02*
X64770Y-42135D01*
X64770Y-42135D02*
X64715Y-42010D01*
X64715Y-42010D02*
X64560Y-41988D01*
X64560Y-41988D02*
X64560Y-41812D01*
X64560Y-41812D02*
X64715Y-41790D01*
X64715Y-41790D02*
X64770Y-41665D01*
X64770Y-41665D02*
X64671Y-41543D01*
X64671Y-41543D02*
X64793Y-41421D01*
X64793Y-41421D02*
X64915Y-41520D01*
X64915Y-41520D02*
X65040Y-41465D01*
X65040Y-41465D02*
X65062Y-41310D01*
X65062Y-41310D02*
X65238Y-41310D01*
X65238Y-41310D02*
X65260Y-41465D01*
X65260Y-41465D02*
X65385Y-41520D01*
X65385Y-41520D02*
X65507Y-41421D01*
X65507Y-41421D02*
X65629Y-41543D01*
X65629Y-41543D02*
X65530Y-41665D01*
X65530Y-41665D02*
X65585Y-41790D01*
X65585Y-41790D02*
X65740Y-41812D01*
X65740Y-41812D02*
X65740Y-41988D01*
X65740Y-41988D02*
X65585Y-42010D01*
X65585Y-42010D02*
X65530Y-42135D01*
X65530Y-42135D02*
X65629Y-42257D01*
X65629Y-42257D02*
X65507Y-42379D01*
X65507Y-42379D02*
X65385Y-42280D01*
X65385Y-42280D02*
X65320Y-42313D01*
X65320Y-42313D02*
X65215Y-42053D01*
%LPC*%
G54D15*
X66500Y-42000D03*
G54D16*
X66500Y-41000D03*
X67500Y-42000D03*
X67500Y-41000D03*
X68500Y-42000D03*
X68500Y-41000D03*
X69500Y-42000D03*
X69500Y-41000D03*
X70500Y-42000D03*
X70500Y-41000D03*
G54D15*
X64000Y-43000D03*
G54D16*
X65000Y-43000D03*
X66000Y-43000D03*
X67000Y-43000D03*
X68000Y-43000D03*
X69000Y-43000D03*
X70000Y-43000D03*
X71000Y-43000D03*
X72000Y-43000D03*
X73000Y-43000D03*
M02*
