M48
INCH,TZ
T1C0.040
%
G90
G05
T1
X64000Y-43000
X65000Y-43000
X66000Y-43000
X66500Y-41000
X66500Y-42000
X67000Y-43000
X67500Y-41000
X67500Y-42000
X68000Y-43000
X68500Y-41000
X68500Y-42000
X69000Y-43000
X69500Y-41000
X69500Y-42000
X70000Y-43000
X70500Y-41000
X70500Y-42000
X71000Y-43000
X72000Y-43000
X73000Y-43000
T0
M30
